<?xml version="1.0" encoding="UTF-8"?>
<svg id="Layer_1" data-name="Layer 1" xmlns="http://www.w3.org/2000/svg" viewBox="0 0 328.2 111.48">
  <defs>
    <style>
      .cls-1 {
        fill: #7e7e7e;
      }
    </style>
  </defs>
  <path class="cls-1" d="M327.66,81.65c-.12-.18,.15-.41,.34-.55,.15-.11,.24-.27,.17-.45-.34-.84-.87-1.55-1.42-2.25-.05-.08-.1-.15-.17-.21-.08-.1-.16-.21-.25-.31-.04-.05-.16-.04-.24-.06-.86,.58-1.07,.49-1.19-.52,.12-.09,.24-.26,.13-.35-.48-.4-.77-.86-.78-1.51,0-.14-.22-.25-.41-.23-.06,0-.11,0-.17,0-.27,.17-.55,.4-.88,.27,.39-.04,.73-.13,.88-.27-.51,.14-1.01,.08-1.51,0-.09-.03-.18-.04-.28-.04-.39-.05-.77-.09-1.16,0,.12,.11,.33,.19,.59,.25,0,0-.02,.01-.03,.02-.15,.13-.41-.08-.56-.27-.32-.74-1.18-1.18-1.97-.97-.35,.09-.71,.13-1.03,.03-.6-.2-1.15-.26-1.76,0-.42,.17-.81-.24-.7-.52,.69-1.71-.41-.7-.99-.75-1.97-.19-3.93,0-5.89,.01-.3,0-.58-.02-.83-.19-.34-.24-.67-.31-1.04-.04-.24,.18-.49,.15-.7-.09-.21-.24-.26-.5-.08-.79,.1-.16,.31-.28,.21-.57-.61,.06-1.21-.14-1.86-.01-.53,.11-1.17,.04-1.05-.82,.04-.28-.15-.58-.3-.55-1.05,.18-1.42-.94-2.21-1.13-.85-.2-1.75-.18-1.96-1.31-.02-.1-.22-.24-.34-.25-.86-.07-1.72-.21-2.56-.11-.45,.05-.8,.28-1.11-.21-.14-.22-.35-.2-.51-.03-.61,.63-.84,.06-1.07-.36-.32-.58-.68-.99-1.43-.86-.46,.08-.77-.19-.71-.63,.1-.72-.17-.51-.66-.46-.68,.08-1.4,.11-2.08-.14-.11-.29-.22-.58-.33-.86-.02-.6-.03-.62-.77-.43-.34,.09-.65,.06-.91-.14-.31-.24-.03-.46,.08-.68,.2-.41,.03-.68-.39-.6-.75,.14-1.12-.99-1.96-.52-.1,.05-.35-.27-.41-.51-.09-.42-.27-.84-.14-1.28,.12-.42-.03-.79-.33-1.02-.44-.35-1.21-.26-1.34-1.03,0-.01-.17-.03-.23,0-.94,.44-1.05-.06-.98-.83,.03-.33,0-.8-.55-.54-.27,.12-.48,.34-.77,.07-.27-.25-.27-.51-.14-.86,.17-.49,.03-.83-.58-.61-.24,.08-.5,.18-.64-.03-.37-.54-1.2-1.12-1.18-1.45,.07-.76-.15-1.44-.15-2.16,0-.23,.26-.46,0-.7-.31-.28-.53-.05-.76,.13-.24,.19-.46,.2-.69-.02-.18-.18-.33-.37-.16-.61,.45-.6,.2-.74-.42-.82-.42-.05-.77-.41-1.28-.08-.29,.18-.55-.21-.66-.52-.07-.2,.08-.48-.18-.63-.34-.31-1.21-.18-.98-.94,.18-.58-.03-.86-.42-1.16-.09-.27,.15-.59-.11-.81-.16-.13-.32,.04-.44,.16-.27,.27-.51,.29-.81,.02-.36-.32-.21-.6-.02-.91,.36-.19,.42-.44,.12-.74-.23-.22-.35-.44-.13-.74,.23-.32,.47-.3,.81-.13,.31,.15,.38,.13,.41-.13,.02-.04,.03-.11,.02-.2,0,0,0,0,0,0-.28-.65,.08-1.29,0-1.95-.08-.72,.27-.9,1.01-.62,.38,.46,.51-.02,.72-.19,.26-.21,.46-.53,.89-.32,.96,.46,1.23,.3,1.37-.76,.09-.68,.37-.81,.97-.41,.28,.19,.5,.29,.73-.03,.32-.46,.68-.6,1.16-.22,.22,.18,.45,.04,.64-.08,.24-.15,.13-.34,.02-.52-.14-.22-.31-.44-.06-.7,.22-.23,.48-.18,.77-.2,.68-.06,1.78,.57,1.81-.88,0-.08,.18-.23,.24-.21,.88,.24,1.6-.84,2.51-.2,0-.99,.24-1.05,1.14-.95,.67,.07,1.42,.04,2.07-.12,.75-.18,1.42-.74,2.25-.29,0,0,.04-.03,.07-.05,0,0,0,0,0,0,.53-.32,1.06-.12,1.62,.06-.26-1.14-.11-1.34,.82-1.26,.59-.11,1.18-.22,1.76-.33,.31-.07,.61-.11,.91,.11,.36,.27,.64,.34,.58-.3-.04-.4,.23-.61,.59-.56,.43,.06,.74-.11,1.01-.37,.23-.22,.47-.16,.72-.1-.09-.07-.24-.12-.42-.15,.02-.02,.05-.03,.08-.06,.03-.04,.25,.09,.34,.22,.04,.04,.09,.11,.13,.11,1.13-.02,2.26-.31,3.4-.08,.17,.03,.43-.17,.58-.33,.43-.46,.72-1.23,1.57-.61,.56-.56,1.24-.74,2.01-.69-.33-.92-.14-1.14,.87-1.01,.52,.07,.96-.13,1.4-.33,.2-.09,.17-.27,0-.4-.14-.26-.27-.51,.04-.76,.3-.25,.55-.24,.85,0,.29,.23,.77,.24,.72-.14-.09-.66,.23-1.26,.16-1.85-.07-.54,.07-.82,.48-1.06,.41-.24,.45-.83,.92-1,.11-.04,.29,.01,.4,.07,.23,.12,.43,.14,.63-.07,.22-.22,.09-.41-.02-.62-.29-.52,.22-.99,.43-.9,1.15,.47,.99-.16,.85-.87,0-.05,.03-.11,.07-.16,.29-.39,.3-.73,0-1.17-.25-.37,.09-.94,.41-.79,.82,.38,.9-.25,1.2-.64,.41-.52,.49-1.29,1.22-1.56,.31-.44-.7-.75-.13-1.21,.38-.31,.36-.61,.06-.96-.13-.15-.25-.38-.1-.56,.33-.38,.27-.84,.36-1.28,.1-.55,.18-.79-.52-.55-.43,.15-.87-.22-.67-.59,.31-.57,.06-.83-.28-1.17-.46-.46,.45-.89,.11-1.24-.3-.31-.87,.16-1.32-.32-.52-.56-1.16-1.14-2.09-.62-.29,.17-.56-.08-.77-.27-.28-.24-.05-.48,.1-.65,.18-.2,.26-.38,.07-.6-.14-.16-.34-.31-.53-.16-.68,.55-1.37,.29-2.06,.07-.24-.08-.46-.07-.65,.1-.31,.28-.6,.29-.93,.03-.14-.11-.32-.16-.47,0-.16,.16-.05,.31,0,.48,.27,.82,.12,1-.75,1-.2,0-.39,.09-.59,.09-.74,0-1.49,.21-2.22-.02-.19-.06-.37-.25-.55-.04-.21,.25,.02,.43,.16,.59,.19,.22,.31,.43,.07,.68-.19,.19-.38,.31-.69,.19-.71-.27-1.84,.16-2.21,.85-.13,.24-.22,.41-.51,.24-.21-.12-.42-.22-.59,.06-.16,.25-.17,.48,.03,.71,.2,.23,.23,.46-.04,.67-.24,.19-.47,.35-.77,.11-.15-.12-.38-.35-.52-.15-.44,.66-.87,.49-1.36,.1-.18-.14-.38-.13-.54,.06-.2,.24-.1,.42,.14,.56,.13,.28,.34,.54-.01,.84-.3,.25-.56,.24-.84,0-.14-.12-.3-.18-.47-.05-.19,.14-.1,.31-.02,.46,.25,.45,0,.74-.36,.91-.78,.36-1.12,.86-.72,1.71,.11,.24-.13,.43-.19,.64-.26,.17-.51,.27-.77,0-.17-.19-.36-.28-.59-.05-.2,.21-.4,.35-.29,.73,.24,.78,.01,.99-.76,.81-.18-.04-.34-.11-.47,.05-.13,.16-.09,.33,.01,.48,.16,.25,.3,.51,.11,.8-.26,.39-.28,.75-.05,1.21,.21,.41-.09,.94-.54,.74-.82-.37-.75,.08-.73,.58,.01,.32,.06,.63,.08,.95,.03,.8-.45,1.17-1.19,.88-.69-.27-1.38,.13-1.62,.49-.31,.46-.86,1-.65,1.72,.2,.66-.17,1.12-.86,.94-.54-.14-.69,.02-.72,.5-.04,.58-.34,.83-.93,.68-.18-.05-.34,.01-.46,.17h0c-.42,.14-.75,.4-1.03,.74-.21,.26-.43,.41-.73,.18-.55-.43-.89-.1-1.22,.31-1.16,0-2.29,.37-3.46,.23-.1,.24,.09,.37,.2,.53,.37,.53-.08,.92-.4,.87-.65-.09-1.32,.29-1.84,.07-.89-.38-1.3,.12-1.75,.63-.34,.39-.66,.65-1.18,.31-.08-.05-.26-.08-.33-.03-.57,.41-1.14,.39-1.76-.05,.33,1.09,.33,1.09-.72,1.26-.14,.02-.27,.09-.39,.17-.53,.38-1.05,.66-1.6,.02-.15-.17-.32-.06-.46,.04-.26,.21-.5,.26-.76,0-.29-.29-.25-.54,0-.83,.22-.27,0-.66-.18-.52-.6,.45-1.18,.06-1.75,.07-.93,.02-1.95,.37-2.79-.36-.45,.24-.79-.13-1.18-.21,.13-.2-.42-.43,.04-.64,.25-.11,.33-.33,.06-.53-.24-.18-.46-.33-.7,.06-.25,.39-.55,.38-.79-.06-.16-.29-.24-.58-.15-.91,.25-.97-.37-2.01,.25-2.96-.67-.63-.14-1.42-.28-2.12-.12-.61-.03-1.29,.33-1.8,.36-.51,.76-.01,1.13,.14,.14,.06,.29-.03,.37-.16,.12-.19,0-.34-.11-.46-.28-.31-.32-.59,.01-.89,.19-.17,.43-.3,.49-.58-.21-.49-.56-1.25,.25-1.24,1.35,.02,.64-.58,.48-1.07-.21-.37-.37-.72,.03-1.08,.28-.26,.15-.52-.05-.76-.24-.29-.22-.56,.03-.85,.29-.35,.54-.2,.81,.01,.27,.21,.77,.1,.66-.1-.42-.75,.25-1.44-.03-2.13-.11-.29-.16-.56,0-.83,.49-.77-.37-1.7,.29-2.46,.02-.02-.13-.24-.23-.33-.21-.18-.35-.38-.31-.67,.25-.46,.2-.82-.39-.78-.77,.05-.84-.39-.81-.96-.23-.59-.36-1.19-.19-1.8-.31-.11-.42,.1-.58,.21-.19,.14-.38,.16-.56,.02-.19-.14-.42-.35-.3-.57,.28-.52-.05-1.06,.05-1.47,.2-.8-.2-.95-.7-1.38-.74-.63-1.54-.49-2.31-.55-.34-.03-.6-.02-.83-.27-.28-.3-.07-.51,.12-.75,.45-.58,.15-.74-.43-.78-.66-.05-1.29-.11-1.93,.17-.67,.3-1.44-.21-2.12,.17-.36-.13-.73-.25-1.14-.39,.02,.15,0,.24,.04,.3,.17,.29,.29,.54,.02,.86-.26,.3-.49,.19-.75,.02-.14-.09-.29-.07-.39,.04-.49,.51-.95,.39-1.43-.03-.13-.11-.27,0-.38,.09-.17,.53-.38,.98-1.05,1.06-.35,.04-.6,.31-.67,.69,.43,.6,.36,.97-.33,1.43-.57,.38-.87,1.15-.49,1.92,.13,.27,.17,.49-.12,.68-.24,.15-.45,.4-.78,.19-.18-.11-.36-.33-.62-.12,.28,.71,.22,1.6,.06,2.13-.37,1.19,.53,2.31-.06,3.42,.75,1.32-.26,2.74,.22,4.08-.28,.28-.11,.74-.43,1.01-.17,.15-.21,.37,.02,.52,.4,.26,.29,.6,.25,.99-.05,.53-.07,1.1,.08,1.59,.16,.52,.15,1.16,.97,1.36,.8,.19,.23,.66-.02,1-.2,.38,.18,.56,.3,.82,.17,.37,.38,.72,.33,1.15-.19,1.53-.24,3.06-.23,4.6,0,.44-.52,.84-.08,1.3,.02,.88,.91,1.82-.17,2.64-.06,.05,.06,.26,.2,.33,.06,.11,.12,.22,.18,.33-.03,.22-.03,.45-.3,.56-.6,.24-.44,.54-.05,.85,.16,.61-.24,.76-.7,.85-.33,.06-.79,.2-.64,.53,.29,.65-.17,1.38,.31,1.96,.17,.2,.07,.38-.06,.55-.13,.16-.34,.38-.24,.53,.5,.72-.1,1.53,.22,2.26,.12,.28,.02,.66-.27,.87-.31,.23-.54-.05-.76-.22-.17-.12-.35-.27-.55-.12-.24,.18-.05,.35,.06,.51,.17,.26,.12,.55,.16,.84,.1,.69-.16,1.37,.1,2.11,.15,.42,.34,1.12-.02,1.58-.54,.67-.35,1.33-.2,2.03,.66,.46-.23,.83-.07,1.25,.32,.82-.24,1.56-.17,2.37,.03,.34-.26,.61-.73,.46-.77-.24-.74,.12-.44,.64,.02,.43,.53,.92,.24,1.22-.82,.88,.04,1.78-.12,2.7-.13,.79-.04,1.77,.03,2.67-.26,.2-.31,.49-.29,.78,.02,.59-.11,.82-.78,.64-.63-.17-.8,.21-.5,.73,.21,.37,.28,.67,0,1.02-.13,.17-.18,.36,.03,.53,.28,.67-.19,1.45-.02,1.95,.33,.96,.15,1.89,.15,2.8,0,.71,.21,1.49-.15,2.2-.24,.12-.42,.32-.75,.28-.67-.09-.51,.28-.29,.64,0,.37-.07,.78-.04,1.11,.08,.7-.45,1.28-.33,1.87,.09,.48,.13,.85-.03,1.3-.13,.35-.28,.89,.5,.65,.28-.09,.51,.07,.67,.31,.19,.29-.02,.48-.19,.69-.15,.19-.52,.49-.22,.63,.88,.39,.56,.91,.19,1.5,.59,.07,1.11-.05,1.53,.42,.57,.62,1.24,1.14,2.17,.62,.14-.08,.27,0,.41,.05,.78,.29,.4,.79,.05,1.46,.82-.42,1.43,.13,1.95-.03,.92-.28,1.64,.12,2.39,.42,.63,.25,1.29-.15,1.33-.84,.02-.51,.2-.97,.85-.6,.3,.17,.47,.12,.67-.1,.18-.2,.4-.41,.68-.25,1.02,.61,1.55-.04,2.05-.76,.23-.33,.43-.41,.75-.09,.56,.57,.81,.24,.86-.37,.04-.52,.27-.83,.8-.84,.67-.01,.88-.23,.45-.83-.2-.29-.05-.55,.13-.8,.13-.17,.26-.26,.51-.21,.87,.19,1.14-.04,.98-.93-.15-.88,.19-1.76-.06-2.64-.05-.19,.36-.45,.07-.69-.32-.27-.53,.05-.74,.22-.28,.22-.52,.18-.77-.05-.28-.26-.36-.52-.06-.82,.3-.3,.29-.61,0-.91-.27-.28-.25-.57-.18-.95,.08-.46,.04-1-.15-1.42-.14-.32-.41,.16-.65,.15-.07,0-.15-.06-.2-.11-.11-.1-.5-2.46-.44-2.61,.02-.05,.06-.1,.1-.14,.12-.15,.11-.3,.05-.49-.32-.84-.26-1.69,.03-2.53,.07-.21,.06-.4-.05-.58-.19-.32-.2-.62-.12-.99,.27-1.21,.03-2.45,.16-3.65,.12-1.09-.51-2.33,.51-3.29,.2-.19,.01-.36-.09-.53-.37-.64-.23-1.02,.52-1.12,.84-.11,.7-.68,.52-1.13-.13-.31-.25-.48,.04-.72,.29-.25,.55-.56,.96-.21,.16,.14,.35,.24,.52,0,.4-.55,.83-.89,1.47-.32,.05,.04,.24-.01,.32-.07,1.09-.77,2.42,.26,3.52-.44,.07-.04,.25,0,.33,.07,.43,.4,.9,.3,1.39,.19,.5-.1,1.08,.06,1.09,.55,.01,.8,.46,.86,1.04,.97,.5,.09,.93,.31,.51,.94-.09,.14-.23,.31-.08,.47,.16,.18,.38,.1,.57,.02,.3-.13,.81-.3,.85,0,.13,.96,.76,1.49,1.41,2.05,.04,.04,.02,.17,0,.25-.11,.68,.31,.48,.62,.35,.66-.27,1.81,.12,2.03,.81,.16,.53,.36,.62,.86,.47,1.05-.31,1.83,.35,1.74,1.43-.04,.48,.51,.85,.97,.6,.31-.17,.5-.12,.77,.07,.53,.36-.21,.88,.16,1.16,.31,.24,.79-.39,1.17,.14,.29,.42,.46,.85,.36,1.4q.92-.45,1.53,.46c.49,.28,.77,1.42,1.57,.36,.69-.28,.9,.12,.89,.69-.02,.68,.1,1.08,.91,.82,.5-.16,.78,.22,.74,.58-.07,.68,0,1.12,.78,1.22,.13,.02,.29,.22,.33,.37,.2,.64,.69,.74,1.24,.68,.74-.08,1.42,.2,2.13,.27,.58,.05,.52,.84,.89,1.03,.34,.18,.89-.47,1.31,.1,.04,.07,.07,.2,.13,.21,.56,.12,1.11,.16,1.14,.99,.02,.36,.43,.23,.67,.01,.21-.08,.43-.3,.64-.12,.44,.37,.84,.76,1.46,.28,.12-.09,.43,.15,.39,.25-.3,.9,.32,1.33,.84,1.84,.07,.07,0,.28,.02,.42,.04,.24,.24,.41,.43,.33,.56-.21,1.13,.15,1.63-.02,.82-.29,1.1,.17,1.39,.75,.19,.37,.39,.78,.92,.45,.55-.34,.99-.15,1.39,.27,.18,.2,.36,.42,.65,.17,.31-.26,.62-.45,1-.12,.36,.31,.16,.63-.02,.93-.1,.17-.1,.33,.05,.47,.15,.15,.3,.09,.47,.02,.58-.26,.96,0,.96,.65,0,.19-.19,.37-.04,.58,.06,.27,.26,.43,.5,.31,.52-.26,.78,.1,1.09,.38,.03,.46-.49,1.28,.7,.96,.23-.06,.49,.12,.55,.41,0,.02,0,.04,0,.06,.01,.09,.01,.19-.02,.3-.11,.35-.34,.69-.01,1.04h0c.15,.4,.09,.99,.85,.73,.3-.11,.56,.33,.49,.47-.34,.7,.34,1.32,.09,1.99-.05,.13-.06,.31,.08,.39,.14,.08,.28-.03,.39-.12,.71-.6,.81-.04,.76,.46-.07,.67,.01,1.02,.81,.87,.43-.08,.73,.18,.69,.66-.02,.26-.36,.56,.07,.74,.37,.16,.74,.07,1.03-.25,.31-.16,.59-.15,.88,.08,.19,.15,.41,.37,.68,.11,.35-.12,.66-.44,1.06,0,.38,.43,.03,.58-.18,.83-.14,.16-.21,.34-.05,.54,.2,.22,.42,.19,.59,0,.3-.35,.64-.28,1-.16,.38,.27,.77-.16,1.06-.06,.78,.25,1.52,.55,2.29,.04,.74,.78,1.64-.05,2.55,.28,.86,.32,2.03,.29,3.08,.14,.04-.19-.12-.31-.19-.46-.23-.5,.07-.99,.59-.87,.8,.19,.87-.28,.8-.8-.07-.53,.17-.82,.58-.91,.87-.19,1.28-.93,1.81-1.48,.34-.36,.54-.87,.29-1.57-.17-.46,.02-1.1-.32-1.64Zm-42.74-56.77s0-.02,.01-.03c0,0,0,.02-.01,.03ZM248.63,1.38c-.1,.13-.23,.19-.39,.13,.14-.03,.27-.07,.39-.13Zm-6.67,17.16c.06,.04,.04,.14,0,.25,0-.09-.01-.18-.01-.27,0,0,.01,.01,.02,.02Zm4.56-16.82c.13-.07,.28-.1,.44-.11-.15,.06-.29,.11-.44,.11Zm66.48,85.76s-.04,.02-.06,.04c.02-.01,.04-.03,.06-.04Zm11.05-11.42c.08,.21,.18,.41,.31,.59-.21-.14-.32-.33-.31-.59Z"/>
  <path class="cls-1" d="M110.09,97.2c.14-.56-.18-1.15-.13-1.56,.11-1.02-.25-1.97-.16-2.95,.02-.2,.08-.43-.14-.55-.85-.44-.98-1.13-.76-1.99,.1-.41-.03-.68-.5-.37-.29,.19-.53,.21-.75-.08-.23-.3-.33-.61-.01-.93,.17-.18,.47-.37,.22-.65-.26-.3-.45,.05-.66,.16-.39,.19-.67-.05-.95-.24-.2-.14-.17-.34-.06-.54,.12-.2,.47-.36,.17-.65-.26-.25-.53-.36-.94-.2-.53,.21-1.12-.3-.86-.74,.32-.56,.16-.96-.06-1.45-.14-.31-.13-.67,.03-1.01,.33-.74-.26-1.59,.27-2.31-.59-.55-.24-1.16-.11-1.76,.11-.52,.07-.96-.69-.69-.25,.09-.52-.06-.69-.28-.21-.27,0-.49,.13-.71,.1-.17,.39-.4,.27-.5-.63-.55-.37-1.25-.29-2-.55,.25-1.07,.8-1.39,.06-.23-.53-.59-1.29-.45-1.67,.39-1.06,.07-2.14,.32-3.19,.16-.69,.09-1.57-.78-2.1-.53-.32-.88-.96-.8-1.62,.11-.93,.21-1.82-.34-2.65-.13-.2-.04-.41,.16-.51,.48-.24,.51-.56,.24-.99-.15-.23-.06-.48-.02-.75,.1-.61-.07-1.23-.53-1.61-.59-.48-1.13-1.54-.86-2.23,.14-.35,.21-.65,.02-.98-.14-.26-.08-.5,.09-.73,.16-.22,.31-.46,.06-.7-.25-.23-.43,.02-.59,.16-.32,.26-.54,.06-.75-.15-.22-.22-.58-.51-.37-.8,.68-.94-.01-1.25-.65-1.64-.36-.22-.67-.52-.6-.98,.17-1.05,0-2.07-.2-3.15-.15,.06-.26,.09-.36,.13-.36,.15-.7,.11-.97-.15s-.01-.54,.03-.81c.05-.34,.23-.63,.15-1.01-.13-.7-.37-1.44,.16-2.11,.12-.15,.1-.36-.04-.48-.38-.35-.29-.74-.24-1.19,.07-.66,.1-1.34-.1-1.98-.1-.34-.14-.62,.18-.85,.27-.19,.22-.44,.11-.7-.12-.29-.33-.32-.63-.3-.97,.07-1.13-.2-.7-1.14,.08-.18,.13-.32-.01-.47-.13-.14-.28-.14-.47-.08-.94,.3-1.19,.06-1.04-.93,.05-.3,.14-.74-.38-.63-.92,.19-.93-.32-1.06-1.01-.21-1.12,.11-2.23-.2-3.38-.17-.62,.16-1.38,0-2.16-.15-.79,.55-1.64,.14-2.53-.04-.08,.03-.22,.08-.32,.41-.82,.32-1.01-.52-1.38-.27-.12-.86-.12-.61-.72,.09-.22,.41-.47-.03-.61-.33-.1-.37-.76-.98-.38-.52,.33-.97-.06-.98-.71,.3-.18,.66-.65,.34-.72-.81-.19-.95-.86-1.35-1.36-.25-.29-.29-.61-.16-.97,.16-.44,.13-.75-.45-.44-.32,.18-.61,.19-.87-.07-.27-.27-.22-.6-.03-.88,.25-.37,.27-.67,.04-1.1-.23-.43-.3-1.02-.13-1.49,.35-.95-.14-1.96,.26-2.9,.02-.04-.01-.12-.05-.16-.35-.41-.35-.82-.01-1.24,.13-.17,.16-.37,0-.56-.16-.19-.34-.2-.53-.06-.3,.22-.57,.26-.83-.07-.21-.27-.26-.52-.09-.87,.33-.71-.31-1.39-.16-2.12,.02-.1-.23-.12-.35,0-.87,.25-1.07,0-1.1-1.3-.37,.18-.74,.3-1.15,.26-.33-.39-.17-.81,0-1.26-.15,.02-.24,.01-.3,.05-.51,.33-.85-.06-1.13-.33-.31-.31,.11-.5,.29-.68,.28-.28,.08-.44-.07-.66-.2-.3-.41-.29-.63-.04-.39,.44-.64,.29-.9-.16-.47-.82-1.45-1.19-1.88-2.07-.12-.24-.38-.26-.6-.11-.19,.12-.16,.3-.03,.44,.31,.34,.2,.61-.1,.89-.35,.34-.61,.15-.9-.09-.3-.25-.56-.27-.51,.23,.04,.41-.15,.72-.47,.86-.64,.27-.82,.75-.81,1.37-.34,.31,.15,.71-.19,1.11-.37,.43-.85,0-1.16,.32-.67,.41-.23,.88,0,1.25,.53,.82-.38,1.8,.34,2.57-.79,.72-.08,1.64-.28,2.47-.15,.63,.16,1.45,.05,2.19-.14,.93,.1,1.86,.06,2.8-.03,.67-.08,1.34-.12,2.02-.05,.8,.31,1.65-.38,2.35-.12,.12,0,.27,.12,.36,.37,.41,.46,.81-.01,1.21-.47,.23-.76-.33-1.21-.31-.07,.39,.21,.76-.08,1.1-.14,.17-.12,.4,.07,.54,.16,.13,.33,.03,.47-.08,.38-.31,.66-.19,.8,.03,.02,.03,.03,.06,.05,.08,.04,.09,.06,.18,.06,.28,0,.69,.38,1.33,.17,2.02-.14,.17-.12,.35-.07,.56,.12,.46,.21,.93-.08,1.37-.3,.12-.21,.37-.21,.59,0,.34-.22,.65-.5,.59-.87-.19-.64,.45-.73,.87-.26,.25-.04,.41,.12,.57,.23,.23,.26,.49,.21,.79-.12,.72,0,1.46-.05,2.19-.06,.96-.4,1.95-.08,2.94,.03,.1-.09,.28-.18,.37-.34,.31-.27,.61-.02,.91,.3,.37,.17,.69-.1,1.01-.27,.32-.54,.25-.84,.04-.3-.21-.6-.21-.6,.24,0,.66-.31,1.35,.18,1.98,.14,.18,.24,.44,.09,.66-.35,.5-.18,1.01-.03,1.5,.08,.27,.16,.52-.06,.72-.3,.28-.26,.53-.05,.83,.19,.27,.13,.55-.02,.82-.11,.2-.27,.4-.13,.65,.31,.56,0,.84-.45,1.11-.61,.36-.96,.84-.53,1.57,.17,.29,.16,.55-.07,.79-.3,.32-.38,.62-.03,.98,.25,.26,.15,.53-.08,.77-.22,.23-.46,.35-.77,.16-.18-.11-.35-.38-.6-.15-.28,.25-.07,.47,.06,.69,.2,.32,.16,.6-.08,.88-.11,.13-.27,.26-.16,.46,.33,.62-.16,.89-.55,1.06-.46,.2-.83,.6-.8,.93,.07,.82,.52,1.62-.07,2.42-.02,.02,.03,.12,.07,.15,.41,.37,.21,.86,.24,1.3,.27,.85-.11,1.74,.18,2.59-.08,.76-.21,1.52-.06,2.29,.07,.36-.04,1.04-.28,.96-.8-.28-1.4,.04-2.06,.34-.11,.05-.33-.18-.51-.29-.51-.29-.74,.46-1.21,.33-.02,.03-.04,.05-.06,.08,0,0-.01,0-.02,0,.03-.02,.07-.03,.08-.07-.75-.19-.45-.93-.72-1.37-.13-.13-.29-.22-.46-.11-.38,.24-.68,.19-.97-.15-.29-.34-.15-.61,.04-.92,.19-.32,.18-.65-.15-.91-.05-.42-.16-.97-.68-.66-.98,.58-.44-.33-.56-.58-.42,.23-.75,.58-1.22,.34-.19-.37-.36-.73,.03-1.1,.19-.18,0-.53-.06-.47-.7,.57-1.31,.1-1.95-.07-.03,0-.09,.07-.13,.11-.71,.16-.76-.49-1.05-.85-.2-.6-.96-.15-1.14-.54-.31-.66-.88-.89-1.43-1.25-.42-.28-.57-.43-.91,.04-.44,.61-.68,.23-.82-.26-.1-.35-.07-.79-.51-.93-.86-.27-1.01-.74-.41-1.45-.67-.18-1.23-.52-1.87-.05-.2,.15-.62,.1-.9-.12,0-.28-.16-.55-.06-.85,.09-.28-.09-.53-.33-.45-.55,.18-.86,.11-.93-.53-.01-.13-.25-.14-.38-.07-.7,.41-.98,.04-1.18-.58-.11-.33-.33-.5-.62-.12-.57,.25-.91-.05-1.03-.54-.17-.67-.55-.95-1.21-.96-.19,0-.42-.06-.56-.18-.4-.36-.72-.18-1.06,.08-.68-.2-1.35-.48-2.08-.49-.43-.2-.3-.63-.39-1.04-.48,.41-.97,.31-1.34-.04-.36-.33,.06-.6,.23-.87,.08-.13,.16-.26,.05-.39-.16-.18-.29-.03-.45,.04-.92,.42-1.13,.28-1.42-.7-.17-.56-.16-1.07,.05-1.6,.17-.42,.12-.57-.4-.46-.44,.09-1-.02-.85-.62,.14-.59-.13-.85-.51-1.14,.05-.23,.11-.45,.16-.68,.24-.43,.23-.48,.07-.47-.92,.06-1.18-.39-1.03-1.23,.04-.22-.08-.48-.3-.59-.28-.15-.43,.1-.56,.28-.37,.55-.59,.32-.88-.1-.22-.32-.25-.61-.17-.98,.24-1.12-.51-1.9-1.01-2.77-.02-.04-.19-.06-.23-.02-.77,.73-1.34-.2-2.02-.23-.35-.74-.76-1.36-1.73-.88,.03,.03,.05,.05,.08,.07-.03-.02-.06-.04-.08-.07-.41-.33-.78-.66-.18-1.15,.21-.17,.24-.37,.05-.59-.2-.23-.41-.32-.65-.09-.3,.3-.62,.23-.95,.08-.18-.26-.27-.53-.18-.85,.23-.18,.49-.37,.23-.7-.24-.31-.47-.17-.74,0-.5,.31-1.37-.08-1.19-.52,.2-.51-.15-.55-.35-.78-.24-.28-.85-.5-.24-.99,.3-.14,.27-.37,.08-.56-.29-.29-.25-.63-.21-.97-.04-.63-.21-.76-.71-.4-.5,.36-.87,.36-1.22-.15,0-.72,.66-1.4,.09-2.17-.1-.14,.14-.53,.21-.81,.07-.25,.16-.49,.2-.75,.04-.28-.09-.34-.36-.27-1.01,.27-1.19,.12-1.07-.9,.13-1.12-.18-1.77-1-2.11,0-.04,0-.08-.03-.12-.05-.23-.1-.47-.15-.7-.29-.53-.69-.95-1.19-1.28-.39-.25-.65-.53-.26-.97,.2-.23,.29-.6,.03-.65-.71-.14-1.47-.27-2.16-.13-.36,.07-.61,.45-1.02,.05-.38-.38-.33-.69,.03-1.03,.1-.1,.21-.24,.11-.38-.13-.19-.3-.12-.45-.01-.33,.24-.72,.34-1.07,.21-1.03-.39-1.78,.02-2.43,.75-.21,.23-.41,.35-.74,.35-.61,0-1.21,.18-1.7,.51-.41,.28-.08,.81-.09,1.23-.02,.67-.55,1.1-1.03,.86-.19-.09-.35-.41-.59-.21-.28,.24,.03,.47,.13,.68,.16,.34,.05,.63-.2,.86-.21,.2-.45,.26-.71,.09-.84-.55-.75,.11-.77,.6-.04,.79,.6,1.61-.1,2.39-.04,.05,0,.26,.06,.31,.44,.31,.3,.77,.24,1.27,.44-.29,.78-.48,1.2-.17,.4,.3,.21,.59,.06,.91-.07,.15,.02,.28,.12,.39,.34,.33,.32,.68,.15,1.11-.16,.4-.03,.77,.49,.52,.46-.22,.63,.13,.9,.29,.11,.27-.05,.94,.61,.4,.25-.2,.42,.04,.62,.14,.07,.23,.31,.41,.24,.7-.09,.36-.73,.61-.21,1.09,.52,.48,.75-.39,1.2-.24,.23,.31,.58,.57,.51,1.03-.24,.38-.36,.71,.31,.56,.66-.15,1.04,.47,.9,.72-.42,.78,.02,1.45,.07,2.15,.03,.39,.07,.74-.23,1.05-.18,.19-.23,.42-.03,.62,.38,.38,.27,.7,.04,1.15-.18,.34-.15,.86-.03,1.25,.12,.39,.5,0,.77,.05,.49,.08,.59,.48,.6,.84,.02,1.31,.17,2.59,.38,3.88,.04,.22-.07,.4-.18,.57-.11,.18-.23,.36-.11,.56,.34,.54,.23,1.17,.32,1.75-.2,.1-.38,.33-.28,.47,.52,.8,.01,1.56-.04,2.33-.28,.25-.33,.53-.09,.83,.17,.22,.23,.45,.11,.72-.09,.2-.11,.41,.14,.51,.27,.11,.42-.08,.55-.28,.41-.2,.59,.17,.84,.35,.1,.28,.16,.55-.06,.81-.18,.21-.29,.46-.09,.7,.35,.42,.19,.85,.09,1.3-.14,.62-.72,1.19-.26,1.91,.05,.08-.12,.3-.19,.46-.61,.36-.57,.71,.02,1.05,.18,.33,0,.58-.25,.74-.84,.54-1.06,1.25-.64,2.16,.12,.26,.09,.51-.07,.74-.16,.22-.29,.43-.12,.71,.29,.49-.01,.86-.41,.95-.92,.2-1.01,.6-.62,1.39,.26,.53-.32,.83-.63,1.11-.31,.28-.4-.15-.54-.33-.11-.14-.21-.31-.41-.15-.18,.14-.39,.33-.24,.59,.41,.72,.15,1.46,.11,2.2-.05,.72-.09,1.37,.19,2.14,.2,.56-.05,1.46,.11,2.21-.34,.94,.23,1.48,.89,1.98,.01,.26,.01,.52,.03,.78,.03,.39-.12,1.07,.22,1.11,.59,.07,1.15,.55,1.75,.27,.37-.17,.62-.23,.92,.09,.31,.34,.2,.61-.06,.91-.17,.2-.29,.65,.08,.54,.62-.19,1.09,.24,1.64,.15,.58-.31,1.13,.28,1.66,.07,.76-.3,1.11-.07,1.11,.71,0,.35,.2,.36,.44,.37,.3,.02,.31-.18,.29-.4-.01-.14,0-.29,0-.43,.86-.7,1.83-.28,2.75-.25,.61,.02,1.42,.01,1.51-.54,.18-1.02,.54-1.29,1.49-.94,.22,.08,.53-.03,.7-.25,.11-.14,.02-.29-.11-.37-.84-.53-.26-.85,.17-1.2,.41-.34,.83-.69,.54-1.31-.17-.37-.3-.71,.08-1.02,.35-.29,.64-.12,.93,.11,.31,.24,.72,.08,.57-.22-.32-.62-.23-1.09,.05-1.67,.11-.22-.06-.59,.03-.92,.09-.32-.11-.54-.44-.37-.8,.41-1.1-.18-1.11-.7-.02-1.08,.03-2.17-.05-3.36-.31,.34-.63,.54-1,.2-.17-.15-.48-.35-.33-.54,.46-.59,.34-.94-.31-1.21-.08-.03-.12-.28-.09-.4,.12-.48-.29-.54-.54-.72-.45-.56-.34-1.21-.37-1.86-.02-.36,.16-.99-.62-.76-.36,.11-.76,.21-.81-.27-.04-.34-.74-.88,.24-1.12,.4-.1-.01-.37-.17-.53-.2-.27-.25-.57-.2-.9,.2-1.33,.16-2.69-.16-3.98-.23-.92,.54-1.85-.16-2.72-.11-.14,.07-.44,.28-.58,.21-.14,.42-.15,.65,0,.22,.14,.38,.55,.71,.32,.39-.27-.11-.56-.06-.85,.32-.22,.59-.56,1.04-.53,.64,.07,.92-.13,.47-.73-.26-.35-.25-.62,.06-.91,.31-.3,.59-.28,.9,.02,.15,.15,.37,.44,.57,.16,.41-.6,.88-.49,1.34-.15,.58,.43-.08,.74-.16,1.11-.07,.28,.06,.69,.26,.53,.69-.57,1.41-.08,2.1-.19,1.24-.19,1.58,.05,2.04,1.24,.09,.24,.2,.28,.46,.22,.87-.18,1.76-.39,2.63,0,.23,.1,.39,0,.55-.14,.28-.23,.53-.16,.76,.09,.21,.23,.37,.46,.18,.77-.46,.73-.06,.61,.46,.52,.57-.1,.98-.02,.89,.82-.07,.7-.11,1.55,.85,1.87,.19,.07,.41,.28,.32,.46-.38,.78,.21,1.54-.08,2.42,.65-.54,1.3-.45,1.93-.43,.59,.34,1.18-.13,1.77,.01,.55,.29,.76,.62,.17,1.09-.21,.17-.24,.37-.03,.59,.19,.21,.42,.26,.6,.05,.42-.51,.9-.44,1.4-.18,.23,.12,.43,.14,.64-.04,.36-.33,.63-.11,.89,.16,.29,.3,.2,.57-.04,.84-.15,.17-.38,.46-.03,.54,.93,.2,.91,.75,1.06,1.58,.25,1.38,0,2.72,.16,4.07,.02,.16-.1,.37,.09,.47,.28,.15,.41-.09,.55-.28,.49-.31,.66,.08,.86,.39,.15,.22,.12,.58,.54,.59,.74,.02,.73,.51,.61,1.05h0s0,0,0,0c-.1,.11-.2,.22-.31,.34,.28,.6,.7,1.08,1.23,1.47,.4,.28,.63,.58,.23,1.04-.15,.17-.15,.36,0,.55,.15,.18,.34,.22,.54,.12,.48-.24,.87-.36,1.13,.33,.11,.28,.4,.1,.58-.06,.41-.35,.7-.18,.87,.23,.23,.58,.67,.8,1.23,.88,.39,.45,.01,.9-.08,1.42,.49-.11,.9-.39,1.29-.03,.1,.17,.2,.34,.3,.51-.3,.42-.23,.8,.32,.71,.94-.15,1.85-.48,2.73,.17,.15,.11,.32-.09,.44-.21,.25-.24,.5-.27,.76-.02,.27,.26,.47,.56,.24,.91-.48,.74-.25,.76,.47,.57,.35-.1,1.04,.21,.91,.49-.28,.6-.39,1.02,.14,1.49,.04,.04-.02,.22-.07,.32-.33,.67-.09,.83,.53,.57,.34-.14,.54-.03,.74,.23,.19,.25,.32,.48,.1,.78-.1,.15-.32,.28-.13,.57,.31,0,.43-.39,.7-.41,.79-.05,1.57,.28,2.17,.62,.48,.27,.9,.51,1.44,.55,.73,.05,1.45,.11,2.18,.17,.11,.27,.49,.48,.26,.83-.25,.37-.4,.73,.08,1,.46,.26,.64-.17,.87-.43,.87,.07,1.09,.52,.7,1.31,.43,.03,.84,.26,1.13,.21,.6-.1,1.15-.29,1.7,.14,.04,.03,.18-.01,.23-.07,.42-.43,.83-.25,1.26,0,.18,.1,.55,.23,.5-.16-.1-.71,1.16-1.23,.26-2.02-.04-.03,.04-.22,.08-.32,.42-.97,.91-.22,1.32-.04,.24-1.01-.37-2.09,.38-3.03,.11-.14,0-.28-.09-.39-.8-1,.32-2.21-.34-3.22-.02-.03,.03-.12,.07-.15,.41-.34,.36-.73,.18-1.17-.12-.3-.04-.62,.07-.93,.14-.4,.3-.76,.05-1.23-.25-.46,.2-.92,.77-.92,.66,0,.83-.25,.48-.81-.2-.31-.31-.55,0-.83,.27-.25,.54-.44,.91-.14,.45,.35,.56,.24,.66-.35,.13-.77-.46-1.57,.15-2.31,.13-.16-.15-.45-.34-.3-1.01,.74-1.21-.14-1.57-.73-.29-.48-.92-.71-1.01-1.37-.03-.22-.31-.09-.43,0-.61,.45-1.05,.46-1.11-.51-.25,.17-.37,.29-.53,.36-.43,.18-.93,.12-1.2-.15-.24-.24,.17-.54,.35-.79,.14-.2,.42-.36,.13-.65-.25-.25-.48-.41-.82-.11-.33,.29-.72,.28-1.04,.03-.36-.29-.14-.65,.03-.95,.4-.72-.42-1.6,.32-2.26,0,0-.05-.09-.08-.14-.43-.76-.34-1.01,.53-1.15,.39-.06,.6-.2,.66-.55,.08-.48,.93-.85,.2-1.47-.12-.1,.11-.28,.25-.39,.34-.25,.74-.24,1.13-.22-.04-.36-.23-.61-.12-.92,.43-1.22,.25-2.49,.36-3.74,.05-.51-.25-1.06,.1-1.52,.23-.31,.23-.51,0-.83-.76-1.06-.15-2.37-.57-3.51-.03-.07,.14-.2,.15-.3,.08-.68,.38-1.27,.13-2.06-.19-.61,.3-1.42-.06-2.15-.03-.06,.28-.35,.48-.45,.44-.22,.66-.65,1.01-.95,.17-.15,.25-.3,.1-.52-.5-.73-.33-1.46,.04-2.17,.13-.25,.12-.41-.05-.62-.12-.15-.32-.39-.27-.51,.48-1.23-.37-2.38-.22-3.55,.09-.74-.15-1.54,.35-2.22,.19-.82,.64-1.62,.13-2.47,0-.05,.02-.09,.04-.13,.26-.1,.52-.18,.77-.3,.21-.1,.32-.24,.06-.42-.29-.31,.1-.42,.18-.62,.11-.26,.4-.52,.04-.81-.23-.45-.03-.82,.2-1.19l.15-.16c.52-.31-.16-.75,.13-1.09,.35-.24,.72-.65,1.13-.19,.32,.35,.53,.35,.84,.04,.29-.28,.62-.32,.94-.04,.29,.25,.25,.56,.07,.87-.32,.56,.13,1.06,.12,1.6,0,.42,.44,.28,.66,.45,.29,.23,.51,.42,.3,.86-.29,.62,.51,1.11,.27,1.79-.05,.14,.32-.04,.47-.13,.29-.16,.5-.04,.69,.17,.16,.17,.4,.37,.21,.6-.81,.95,.13,1.43,.55,1.99,.27,.36,.8,.55,.24,1.07-.14,.13-.13,.36,.03,.47,.5,.33,.42,.69,.11,1.08-.2,.25-.17,.46,.07,.68,.24,.22,.41,.06,.61-.07,.24-.16,.46-.6,.79-.26,.27,.27,.56,.62,.28,1.08-.12,.19-.27,.45-.03,.63,.26,.19,.41-.09,.58-.23,.22-.19,.43-.28,.69-.07,.21,.17,.52,.39,.39,.62-.34,.6-.06,1.17-.09,1.73-.05,1.16-.18,2.3-.02,3.48,.12,.84-.07,1.73-.02,2.59,.05,.79-.71,1.55-.08,2.36,.04,.05,0,.22-.04,.24-.65,.34-.18,.76-.11,1.16,.08,.47,.46,.86,.22,1.41-.12,.3,.2,.28,.45,.29,.81,.04,1.06,.51,.6,1.15-.21,.3-.11,.47,.06,.68,.26,.32,.33,.64,.12,1.04-.15,.28-.08,.62-.08,.94,0,1,.57,1.95,.21,2.99-.11,.32,.14,.49,.52,.49,.98,0,1.24,.32,.97,1.25-.14,.49-.04,1.1,.23,1.18,.79,.22,1.14,.88,1.71,1.32,.18,.32,.82,.55,.28,1.03-.62,.54-.17,.79,.23,1.07,0,1.19,.03,2.38,0,3.56-.01,.62,.02,.68,.57,.45,.29-.2,.56-.44,.89-.04,.27,.32,.43,.64,.1,1-.25,.27-.36,.51-.06,.81,.36,.35,.37,.69-.02,1.03-.29,.26-.29,.56,0,.82,.46,.43,.46,.82-.01,1.24-.13,.12-.22,.32-.05,.46,.69,.59,.2,1.35,.24,2,.04,.56-.04,.8,.59,.54,.3-.12,.58-.04,.77,.22,.19,.26,.18,.54-.04,.8-.22,.25-.26,.5-.08,.79,.21,.33,.34,.67,.06,1.04-.12,.16-.08,.33,.09,.45,.15,.1,.3,.04,.39-.07,.46-.63,.86-.37,1.25,.07-.15,.59-.38,1.17,.58,1.32,.26,.04,.47,.44,.22,.78-.31,.43,0,.61,.29,.8,.35,.32,.44,.66,.1,1.04-.13,.15-.32,.34-.15,.53,.5,.53,.11,1.06,.1,1.61-.02,.84,.08,1.67-.35,2.45-.05,.09,.02,.3,.1,.4,.33,.42,.55,.82,.11,1.31-.05,.05-.03,.25,.03,.31,.46,.47,.38,.93,0,1.39-.14,.17-.09,.37,.03,.48,.64,.61,.1,.96-.29,1.29-.21,.18-.49,.25-.15,.55,.51,.45,.29,.81-.16,1.12-.57,.4-.74,.94-.62,1.59,.05,.29,.08,.55-.03,.85-.26,.7-.47,1.42-.32,2.19,.06,.31-.08,.63-.41,.67-.49,.05-.53,.27-.65,.72-.15,.55-.53,.98,.02,1.5,.15,.15,.02,.4-.12,.55-.29,.33-.27,.72-.17,1.07,.14,.45,.08,.85-.1,1.26-.14,.31-.02,.57,.06,.89,.2,.73,.43,1.54,.22,2.27-.15,.53-.16,.75,.36,.99,.49,.23,1.16,.54,.39,1.24-.15,.14-.13,.31,0,.46,.17,.19,.34,.15,.54,.02,.8-.53,1.55,.29,2.38,.1,.31-.07,.56,.43,.27,.87-.13,.2-.09,.63,.1,.5,.54-.38,.98,.1,1.46,0,.43-.04,.73-.19,.86-.67,.09-.36,.33-.75,.79-.54,.51,.23,.73-.04,.97-.37,.11-.01,.27-.08,.34-.04,1.06,.69,1.68-.17,2.38-.68,.26-.19,.44-.44,.83-.29,.57,.23,.63-.05,.43-.5-.16-.37-.22-.72,.17-1.01,.12-.09,.21-.24,.1-.38-.55-.69-.01-.92,.46-1.24,.44-.3,1.04-.72,.85-1.24-.19-.51-.15-.89-.15-1.38,0-.59-.13-1.12,.26-1.64,.03-.05-.07-.2-.12-.3-.4-.75-.32-1.03,.53-1.25,.53-.14,.85-.75,.71-.91-.55-.63-.23-1.21-.09-1.81Zm-18.06-35.88c.11,.08,.19,.17,.23,.27-.07-.1-.14-.19-.23-.27Z"/>
  <path class="cls-1" d="M167.59,50.1c-.11-.54-.58-1.01-.26-1.62,.25-.46,.29-.93,.03-1.41-.09-.17-.09-.35,.03-.49,.54-.6,.03-1.07-.29-1.43-.34-.39-1.2-.48-.55-1.27,.62-.75-.94-.79-.47-1.48,.03-.05,.05-.11,.06-.16,.07-.29-.08-.4-.32-.31-.36,.13-.67,.15-.95-.15-.29-.3-.02-.63,0-.92-1.06-.1-2.1,.28-3.04-.33-.17-.11-.37-.08-.58,.02-.85,.39-1.04,.28-1.17-.69-.07-.55-.34-.73-.8-.4-.32,.23-.59,.36-.92,.07-.17-.14-.37-.15-.58-.07-.49,.2-.99,.26-1.63-.11,.17,.3,.23,.43,.31,.54,.2,.25,.31,.51,.05,.78-.21,.21-.48,.39-.78,.26-.96-.42-1.55,.07-2.02,.79-.24,.38-.44,.52-.77,.12-.18-.21-.39-.41-.59-.01-.31,.58-.19,1.37-.55,1.93-.09,.08-.16,.17-.22,.26-.09,.08-.19,.15-.32,.21-.06,.03,0,.27,0,.42-.05,.29-.5,.42-.33,.81,.11,.24,.4,.52-.02,.72-.35,.16-.7,.46-1.11,.09-.16-.14-.36-.23-.54-.04-.2,.22,.02,.36,.14,.5,.11,.13,.22,.26,.33,.4,.03,.11,.01,.2-.02,.27,.01-.08,.02-.17,.02-.27-.13,.29-.32,.53-.6,.68-.28,.15-.71,.06-.79,.51,.06,.78-.51,1.6,.21,2.33,.19,.19,0,.42-.14,.62-.11,.17-.43,.26-.25,.56,.52,.88,.29,1.37-.67,1.39-.16-.17-.27-.53-.59-.32-.26,.18,0,.34,.13,.48,.26,.29-.11,.46-.15,.69-.03,.24-.32,.47-.04,.7,.51,.44,.2,.81-.05,1.2-.26,.2-.11,.37,.02,.57,.46,.71,.22,1.11-.71,1.19-.12-.16-.26-.39-.46-.31-.26,.09-.09,.34-.08,.53,.02,.4,0,.8-.16,1.18-.42,.13-.18,.91-.81,.84-.4-.05-.87-.17-1.17,.05-.53,.4,.49,.6,.23,1.03-.18,.29-.5,.48-.55,.86-.71,.44-1.03,1.77-2.4,.86,.5,.77,.39,1.25-.29,1.55-.58,.26-.73,.94-1.27,1.24-.06,.03-.2-.07-.31-.12-.49-.24-.6-.04-.57,.44,.02,.34-.05,.69-.07,1.03-.03,.37-.19,.52-.57,.37-.22-.08-.49-.35-.7-.04-.2,.3,.16,.45,.29,.65,.2,.31,.11,.54-.11,.77-.22,.23-.45,.4-.75,.14-.76-.66-.64,.06-.72,.46-.47,.36-.93,.7-.26,1.32,.31,.29,.04,.63-.13,.92-.3,.08-.56,.03-.82-.14-.24-.15-.44,0-.62,.16-.13,.12-.06,.25,0,.38,.42,.99,.31,1.14-.85,1.2,0,.3-.04,.65,.01,.91,.13,.67-.56,1.26-.12,1.92,.16,.24,.22,.48,0,.7-.23,.22-.49,.45-.84,.27-.45-.23-.7,0-.91,.36,.13,.58-.07,1.04-.51,1.41-.64,.31-.89,.72-.37,1.36,.17,.21,.16,.5-.03,.73-.18,.23-.46,.29-.71,.17-.91-.43-.83,.12-.74,.72,.05,.35-.08,.64-.37,.82-.28,.17-.49-.03-.7-.19-.15-.12-.3-.34-.52-.15-.84,.76-1.95,.36-2.91,.66,.4,.95,.23,1.24-.82,1.47-.55-.35-1.13-.45-1.75-.19-.32-.35-.58-.7-.17-1.16,.28-.31,.13-.56-.16-.77-.02-.11-.05-.23-.05-.34,.01-.46,.62-1.32-.64-.92-.09,.03-.3-.1-.35-.2-.34-.68-.99-1.3-.54-2.18,.13-.81-.33-1.72,.39-2.44,.01-.01-.06-.09-.08-.14-.34-.62,.1-.83,.55-1,.17-.06,.5,.12,.49-.18-.03-.84,.3-1.67,.21-2.45-.1-.9-.11-1.81-.24-2.7-.22-1.58,.64-3.11,.14-4.69-.04-.12,.12-.31,.2-.46,.09-.15,.26-.32,.14-.47-.54-.65-.14-1.42-.1-2.04,.11-1.58-.38-3.11-.17-4.67,.06-.43-.17-.87,.3-1.24,.47-.37,.69,.23,1.08,.21-.06-.46-.37-.92,0-1.34,.26-.29,.24-.56,.04-.86-.1-.14-.24-.35-.11-.48,.75-.79,.18-1.74,.34-2.59,.1-.52-.62-.82-.37-1.37,.19-.4-.03-.53-.35-.6-.54-.12-.78-.39-.67-.99,.07-.39-.02-.81-.05-1.21-.03-.34-.12-.61-.59-.55-.6,.09-.94-.22-.93-.83,0-.28-.04-.35-.33-.32-.94,.12-1.89,.32-2.74-.34-.16-.13-.32,.06-.44,.18-.27,.26-.51,.2-.75-.05-.22-.24-.46-.47-.21-.83,.13-.18,.33-.37,.06-.59-.87-.21-1.34-.02-1.45,.57,0,.05,.02,.09,.06,.13,.28,.71-.23,.89-.73,1.07-.71-.14-1.37-.31-1.51,.79-.04,.36-.5,.75-1.02,.34-.13-.1-.26-.27-.44-.09-.13,.12-.04,.27,0,.4,.32,1.09,.05,1.84-.93,2.33-.37,.19-.52,.31-.38,.77,.27,.91,.23,1.99,.12,2.81-.13,.99,.45,1.95-.08,2.95-.25,.47,.11,1.21-.24,1.88-.18,.34,.36,.97-.24,1.49,1.51-.31,1.74-.1,1.66,1.37-.03,.57,.04,.98,.72,1.18,.63,.18,1.13,1.59,.87,2.21-.08,.19-.12,.33,.06,.45,.29,.2,.36-.17,.56-.23,1.07,.13,1.23,.49,.63,1.36,.74,1.49,0,2.98,.06,4.55,.02,.02,.15,0,.23-.08,.34-.29,.64-.17,.93,.08,.3,.27,.25,.55,.04,.85-.1,.14-.22,.32-.04,.46,.57,.45,.27,1.05,.37,1.57,.25,1.31-.32,2.58,.06,3.89,.5-.18,1.22-.08,1.19,.46-.05,.74,.29,1.48,.09,2.15-.19,.63-.02,1.11,.14,1.65,.04,.14,.16,.33,.11,.4-.58,.81-.05,1.7-.09,2.52-.05,1.13-.57,2.31-.02,3.46,.05,.11-.1,.32-.17,.48-.08,.16-.13,.3-.05,.49,.35,.88-.23,1.83,.18,2.73,.03,.07-.05,.23-.12,.32-.3,.39-.54,.7,.05,1.11,.34,.24,.28,.75,.07,1.14-.31,.57-.05,1.02,.4,1.24,.51,.25,.61,.61,.68,1.09,.08,.5,.3,.87,.85,.36,.22-.2,.6-.28,.67,0,.22,.98,.83,1.12,1.67,.94,.15-.03,.33,.08,.5,.14,.26,.09,.52,.09,.75-.07,.73-.51,1.41-1.13,2.42-.99,.02,0,.05-.03,.07-.05,.92,.02,1.82-.42,2.75-.15,.46,.73,.88-.41,1.36-.05,.1,.08,.26-.07,.2-.25-.02-.05-.07-.08-.11-.12-.4-.4-.36-.9,.13-1.03,1-.27,.99-.9,.89-1.71-.07-.57,.48-1,.9-.75,.27,.16,.5,.37,.73,.07,.22-.29-.13-.5-.22-.74,.37-.57,.9-1.09,.12-1.8-.29-.26,.16-.44,.39-.58,.3-.19,.61,.19,.89-.04h0c.06-.08,.08-.16,.08-.25,0-.03,0-.05,0-.08,.13-.56,.27-1.08,1.21-.73,.33,.12,.46-.31,.26-.59-.26-.36-.27-.66,0-.99,.21-.12,.45-.26,.33-.52-.22-.46,.08-.67,.34-.94,.33-.36,.61-.75,.92-1.13,.4-.1,.59,.46,1.01,.32,.77-.25,.78-.65,.04-1.4,.21-.52,.52-.84,1.12-.53,.21,.11,.35,.48,.65,.22,.28-.23,.04-.48-.06-.71-.48-1.13,1.22-1.07,1.1-2.02-.02-.14,.24-.33,.47-.31,.14,.01,.26,.12,.4,.15,.33,.07,1.04-.6,.87-.84-.37-.5,.06-.58,.3-.79,.31-.25,.71-.38,.89-.79,.13-.29,.5-.38,.76-.27,.63,.27,1.16,.03,1.74-.15,.57-.18,.45-.37,.19-.72-.14-.19-.65-.31-.28-.66,.27-.25,.58-.66,1.05-.3,.54,.41,.7,.21,.7-.38,0-.19,.13-.38,.2-.56,.35-.17,.66-.14,.97,.11,.12,.1,.28,.25,.45,.06,.13-.16-.06-.25-.1-.37-.25-.72,.1-1.21,.81-1.1,.51,.08,.61-.12,.38-.5-.21-.36-.23-.63,.08-.93,.34-.33,.6-.13,.92,.06,.29,.18,.32,.14,.34-.37-.05-.17-.13-.33-.14-.5-.06-.63,.37-1.2,.1-1.91-.16-.43,.49-.68,.99-.36,.25,.16,.46,.49,.8,.1,.25-.28,.43-.51,.09-.88-.34-.38-.06-.59,.29-.79,.3-.17,.59,.07,.91-.03-.2-.41-.65-.7-.22-1.19,.43-.49,.72-.14,1.11,.07,.45,.24,1-.11,.87-.46-.42-1.08,.6-1.3,.96-1.9,.18-.31,.47-.45,.8-.19,.29,.23,.46,.06,.64-.15,.2-.23,.26-.45,.01-.68-.36-.34-.4-.66,0-1.02,.42-.39,.67-.06,.96,.16,.48,.34,.51-.04,.53-.36,.04-.46,.26-.74,.69-.87,.11,0,.23,.02,.34,.03,.02,.29,.17,.51,.39,.2,.26-.37,.56-.48,.95-.45,.7,.06,.79-.28,.58-.83,.59-.44,.96-1.01,1.08-1.73,.06-.25,.03-.62,.18-.72,.81-.51,1.23-1.59,1.94-1.91,1.1-.5,.83-1.41,1.2-2.11-.17-.36-.21-.68,.14-.99,.42-.39,.63-.93,.9-1.42Zm-18.27,20.95c.16-.13,.31-.12,.45-.05-.18,.01-.33,.03-.45,.05Z"/>
  <g>
    <path class="cls-1" d="M262.26,104.48c0-.06-.1-.13-.16-.2,0,0,0,0,0,0h0c-.2-.48,.24-.85,.3-1.35-.47,.04-.78,.39-1.19,.34-.25-.26-.32-.56-.11-.86,.18-.27,.14-.48-.06-.7-.3-.31-.29-.61-.11-1.02,.21-.47-.18-.86-.67-.68-.33,.12-.59,.15-.75-.15-.29-.54-.87-.62-1.32-.74-.65-.17-1.51,.14-1.46-1.01,0-.02-.05-.06-.06-.05-.64,.29-1.21-.37-1.81-.15-.38,.14-.6,.03-.85-.21-.32-.31-.05-.51,.14-.72,.15-.17,.22-.35,.06-.55-.18-.23-.41-.23-.61-.05-.42,.36-.78,.28-1.12-.11-.18-.2-.39-.22-.63-.11-.29,.13-.53,0-.67-.23-.46-.77-1.16-.91-1.99-.91-.52,0-1.12-.12-.76-.94,.14-.31-.04-.29-.3-.4-.92-.38-1.91,.25-2.86-.33-.48-.3-.96-.32-.74-1.03,.1-.32-.09-.73-.4-.47-.54,.46-1.16,.25-1.63,.21-.84-.08-1.92,.42-2.51-.67-.48-.59-1.16-.97-1.85-.84-.6,.11-.93-.14-.98-.52-.13-.86-.81-1.06-1.38-1.43-.36-.44-1.4-.51-.8-1.49,.02-.03-.31-.95-.92-.64-.54,.27-.75,.02-.92-.4-.27-.71-.71-1.1-1.52-.92-.36,.08-.66-.12-.61-.42,.17-1.01-.51-.98-1.15-1.03-.34-.03-.77-.15-.71-.48,.15-.9-.33-.88-.94-.76-.33,.06-.55-.14-.77-.32-.73-.57-1.23-1.46-2.28-1.57-.45-.18-.71,.81-1.23,.2-.12-.38-.39-.65-.69-.9-.32-.28-.78-.01-1.13-.3-.31-.26-.48-.5-.21-.86,.13-.17,.66-.23,.3-.51-.42-.34-.2-1.24-1.09-1.14-.39,.04-.8-.02-1.19-.09-.36-.07-.62-.28-.61-.71,.03-.9-.18-1.06-.97-.67-.24,.12-.42,.16-.63-.01-.18-.16-.38-.39-.26-.59,1.04-1.77-.31-.68-.77-.65-.03,0-.05-.02-.08-.03,.02-.45,.03-.89-.06-1.28,.02-.18-.04-.32-.15-.43-.17-.33-.45-.6-.93-.79-.13-.05-.2-.27-.29-.41-.13-.04-.32-.16-.39-.11-.58,.41-1.05,.37-1.42-.28-.14-.24-.32-.16-.5-.02-.2,.15-.38,.57-.68,.24-.24-.26-.42-.63-.22-1.03,.11-.24,.46-.48,.08-.72-.34-.22-.48,.18-.69,.34-.71-.02-.7-.53-.69-1.03,.17-.2,.24-.41,.05-.62-.39-.41-.41-.79-.01-1.21,.24-.25,.08-.48-.09-.69-.3-.39-.09-.75,.15-1.02,.28-.31,.5,.06,.72,.21,.19,.13,.39,.39,.59,.15,.71-.86,1.56-.3,2.32-.22,.49,.05,.7,.14,.6-.49-.12-.73,.2-.98,.89-.69,.41,.17,.76,.31,1.06-.14,.05-.04,.07-.09,.09-.13,.04-.05,.07-.11,.06-.15-.19-.98-.2-.97,.88-.99,.31,0,.56-.09,.2-.43-.14-.21-.62-.42-.35-.64,.57-.48,1.17-.91,1.64-1.5,.13-.16,.32-.06,.48,.02,.17,.09,.33,.11,.47-.06,.39-.51,.83-.57,1.35-.2,.15,.11,.33,.11,.49,.01,.68-.44,1.37-.36,2.07-.05,.46,.21,.65,.09,.62-.43-.03-.57,.31-.87,.83-.91,.54-.04,.77-.21,.49-.76-.15-.29,.02-.49,.22-.67,.24-.22,.46-.16,.69,.02,.17,.13,.36,.33,.61,.11,.16-.24,.27-.53,.49-.69,.43-.33,.8-.57,.5-1.25-.14-.33,.13-.76,.67-.5,.2,.1,.4,.29,.59,0,.24-1.07,.07-2.17,.25-3.26,.08-.47,.28-.94,.2-1.5-.13-.91-.35-1.93,.5-2.7,.03-.03-.02-.15-.03-.22-.04-.32-.55-.47-.3-.91,.32-.54,.81-.18,1.18-.21,.16-.84-.86-1.51-.21-2.34,.26-.25,.11-.48-.05-.69-.21-.27-.36-.51-.06-.83,.26-.28,.51-.34,.82-.09,.19,.16,.37,.12,.54-.04,.14-.13,.22-.31,.09-.46-.37-.45-.26-.82,.08-1.22,.18-.2,.07-.44-.07-.64-.14-.2-.25-.4-.1-.64,.55-.83,.6-1.73,.48-2.7-.13-1-.03-2.02-.33-3-.23-.48-.02-.92,.12-1.37-.49-.32-.86-.76-1.22-1.2-.26,0-.52-.02-.77-.02-.37,0-.71-.21-.65-.54,.1-.67-.24-.62-.72-.81-.61-.25-1-.39-1.46,.18-.21,.26-.48-.04-.72-.08-.06-.05-.12-.1-.17-.15-.13-.16-.28-.14-.46-.08-.83,.3-.97,.19-.82-.69,.04-.22,.05-.47-.18-.49-.56-.04-.87-.51-1.35-.67-.06,0-.12,0-.18,0-.72,.24-1.22,.16-1.19-.77,0-.03-.13-.07-.2-.1-.06,0-.14-.02-.17,0-.45,.45-.83,.24-1.36,.05-.65-.24-.94-.47-.76-1.15,.06-.22-.18-.39-.29-.28-.54,.58-1.26,.26-1.87,.38-.99,.19-2.13,.32-3.04,0-.9-.32-1.62,.06-2.42,0-.71-.06-1.44-.42-2.15,.06-.06,.04-.31-.14-.42-.27-.2-.23-.39-.31-.68-.19-.19,.08-.38,.03-.58-.08-.59-.31,.24-1.02-.26-1.17-.42-.12-.97,.17-1.16-.49-.45-.56-.77,.52-1.26,.09-.36-.32-.26-.98-.86-1.09-.06-.01-.11-.03-.16-.04-.16-.19-.34-.21-.53-.06-.51,.37-1,.65-1.45-.09-.11-.18-.31-.06-.47,.02-.56,.27-.95,.22-1.02-.52-.04-.45-.36-.55-.76-.48-.26,.05-.52,.15-.77,.13-.49-.05-1.06-.07-.7-.88,.23-.52-.27-.91-.58-.78-.6,.24-1-.05-1.51-.15-.71-.14-1.08-.29-.92-1.08,.07-.34-.13-.5-.47-.3-.28,.16-.52,.55-.89,.15-.33-.35-.2-.68,.04-1.01,.13-.18,.19-.38,0-.55-.07-.07-.27-.13-.29-.1-.69,.9-1.72-.37-2.42,.39-1.07-.45-2.24-.13-3.31-.38-.68-.16-1.22-.47-1.83,.11-.2,.19-.5,.03-.66-.22-.19-.3-.44-.29-.64-.05-.41,.5-.76,.36-1.01-.1-.56-1.01-1.45-.73-2.3-.65-.36,.09-.72,.12-1.06-.07-.36-.2-.64-.09-.88,.22-.45-.15-1.27-.02-.8-.92,.36-.7,.3-.93-.5-1.1-.52-.11-.94-.31-.95-.93-.02-.71-.32-.63-.74-.28-.23,.19-.47,.42-.73,.07-.19-.25-.39-.53-.11-.86,.07-.09,.15-.18,.22-.27,.07-.1,.12-.21,0-.3-.06-.04-.2-.06-.24-.03-.64,.58-1.25,.04-1.88,0-.63-.04-.91-.36-.86-.94,.05-.53-.1-.63-.57-.41-.14,.07-.34,.05-.5,.03-1.12-.15-2.29,.32-3.41-.23-.08-.04-1.09-.26-1.16,.62-.06,.73-.92,.46-1.25,.88-.05,.06,.01,.22,.02,.33,.07,1.34,.23,2.68-.04,4.02-.04,.19-.03,.42,.05,.6,.38,.91-.47,2,.42,2.84,.03,.02,.02,.14-.01,.16-.68,.54,.03,1.16-.15,1.79,.47-.15,.86-.14,1.18,.19,.11,.07,.13,.18,.11,.29,0,.03,0,.05,0,.09-.05-.1-.09-.22-.1-.38,.02,.2,.05,.4-.09,.58-.21,.26-.39,.52-.06,.83,.29,.26,.54,.11,.76-.09,.26-.24,.52-.18,.8-.07-.11-.1-.25-.17-.39-.24,.15,0,.28,.11,.39,.24,.1,.2,.28,.38,.18,.64-.11,.29-.52,.59-.31,.85,.48,.59,.28,1.22,.25,1.82-.03,.56,.17,.64,.65,.59,.72-.08,1.01,.33,.73,.97-.27,.6,.1,1.58,.7,1.93,.3,.18,.74,.3,.51,.84-.08,.19-.38,.4-.11,.6,.27,.2,.48-.07,.68-.23,.36-.29,.66-.09,.94,.12,.36,.27,.1,.5-.1,.71-.34,.36-.29,.72,.22,.67,1.56-.17,2.34,1.2,3.55,1.71,.09,.04,.16,.17,.2,.27,.49,1.13,.19,2.33,.26,3.49,.03,.49,.04,1.01,.1,1.51,.03,.27,.13,.39,.39,.22,.27-.17,.49-.54,.89-.17,.37,.34,.3,.67,.16,1.1-.25,.73,.18,1.37,.92,1.57,.42,.12,.79,.41,.48,.88-.26,.4-.22,.67,.06,.99,.14,.15,.18,.34,.13,.57-.32,1.32-.28,1.46,.7,2.14,.21,.15,.25,.37,.31,.6,.42,1.72-.52,3.52,.32,5.22,.05,.1-.12,.32-.21,.46-.15,.22-.22,.4,.02,.61,.21,.19,.41,.17,.62,0,.21-.16,.43-.33,.69-.08,.22,.22,.37,.48,.24,.78-.28,.62,.06,1.19,.41,1.48,.6,.5,.78,.87,.21,1.46-.06,.06-.06,.24-.01,.32,.54,.94,.84,1.91,.4,2.98-.06,.14,.04,.28,.18,.36,.08,.29,.32,.58-.02,.86-.26,.21-.51,.21-.78,.01-.11-.08-.25-.11-.38-.16-.11,0-.23,0-.34,0-.38,.12-.69,.32-.91,.66-.41,.37-.27,.87-.24,1.3,.03,.43-.03,.79-.28,1.12-.05,.03-.11,.04-.15,.08-.35,.28-.71-.56-.95-.06-.12,.24,.12,.66,.21,1,0,.07,0,.13,0,.21-.22,.32-.55,.62-.11,1.02,.22,.2,.14,.42-.05,.6-.2,.2-.42,.49-.73,.26-.64-.47-.62-.03-.63,.41,0,.23-.02,.46-.03,.68,.09,.72-.33,1.35-.31,2.08,0,.16-.04,.32-.13,.43,.06-.07,.13-.14,.18-.22,0,.01,0,.03,0,.04,.01,.19-.18,.41-.41,.47,.08-.07,.13-.16,.2-.24-.12,.1-.3,.14-.57,.02-.59-.25-.64,.15-.55,.58,.05,.29,.2,.54,.51,.65,.66,.24,.83,.64,.4,1.23-.04,.08-.14,.18-.12,.22,.47,.75,.56,1.4-.43,1.81-.04,.01-.06,.1-.06,.16,.02,1.13-.16,2.26-.46,3.32-.31,1.1,.8,2.16-.04,3.22-.04,.05,.13,.3,.23,.43,.24,.28,.2,.51-.04,.76-.22,.23-.4,.35-.74,.15-.58-.34-.83-.06-.73,.54,.11,.61-.07,1.03-.69,1.21-.18,.05-.31,.14-.37,.33-.17,.59-.41,1.05-1.16,.64-.21-.11-.26,.15-.33,.3-.14,.29-.13,.62-.19,.93-.07,.39-.18,.85-.78,.65-.21-.07-.42-.27-.61,.02-.15,.24-.03,.46,.11,.65,.26,.38,.1,.65-.21,.89-.36,.04-.78-.04-.92,.46-.16,.54-.53,.78-1.13,.65,.49,1.03,.3,1.57-.45,1.52-.18-.01-.39-.24-.54,0-.13,.21,.07,.37,.19,.54,.15,.21,.35,.41,.1,.68-.2,.22-.41,.29-.7,.17-.22-.09-.46-.17-.56,.17-.23,.44-.68,.81-.49,1.4,.19,.56-.1,.82-.61,.88-.26,.03-.65,.04-.56,.36,.23,.84-.21,1.73,.18,2.52,.44,.9-.08,1.84,.23,2.74,.11,.31-.09,.67-.27,.98-.1,.17-.25,.34-.05,.54,.2,.31,.86,.24,.73,.81-.15,.67,.2,1.09,.65,1.47,0,.05,0,.1,.02,.15,.04,.15,.11,.27,.18,.39,0,0,0,.01,.01,.02,.36,.53,1.04,.78,1.38,1.34,.88,.21,1.58,.76,2.3,1.27,.12,.09,.26,.12,.41,.07,1.09-.33,2.19-.15,3.26,.09,.53,.12,1.03,.12,1.55,.06,.48-.05,.96-.14,.39-.76-.23-.25-.1-.48,.09-.69,.19-.2,.39-.35,.68-.13,.13,.1,.24,.25,.45,.17,.3-.12,.94-1.92,.77-2.21-.01-.02-.04-.05-.06-.06-.47-.38-.16-.64,.15-.89,.68-.56,1.02-1.6,.78-2.41-.23-.76,.04-1.15,.85-1.15,.26,0,.57-.01,.52-.28-.11-.65,.31-1.26,.11-1.88-.2-.64,.33-1.07,.37-1.65,.02-.34,.46-.46,.85-.42,.18,.02,.28-.16,.18-.29-.48-.61,.08-1.22,0-1.84-.08-.55,.47-.81,1.05-.58,.13,.05,.25,.17,.39,.05,.17-.15,.1-.34-.02-.46-.38-.4-.32-.76,.02-1.14,.1-.12,.08-.27-.03-.39-.17-.49-.37-.89-.13-1.52,.14-.36,.37-.85,.33-1.35,.02-.09,0-.19-.04-.29-.24-.56,.67-.84,.34-1.43-.34-.6,.07-.83,.54-1,.53-.18,.99-1.38,.66-1.86-.18-.27-.27-.51-.09-.8,.16-.26,.41-.31,.68-.21,.39,.15,.52-.04,.58-.39,.08-.49,.19-.97-.14-1.42,.27-1.33-.31-2.7,.19-4.02-.23-.34-.6-.65-.26-1.13,.32-.44,.6-.19,.94-.02,.42,.21,.43-.2,.54-.43,.28-.19,.26-.48,.24-.77-.07-1.11,.15-1.29,1.16-.99,.32,.01,.5-.08,.16-.34-.24-.19-.52-.61-.47-.65,.74-.75-.14-1.69,.31-2.44,.7,.07,1.39,.19,2.1,.04,.33-.07,.62,.19,.8,.44,.25,.34-.22,.46-.31,.7-.11,.05-.19,.13-.13,.24,.12,.22,.32,.1,.49,.09,.54,.08,1.2-.44,1.61,.32,.85-.4,1.08,.18,1.37,.79,.09,.19,.43,.25,.66,.37,.4,.33,.6-.15,.89-.22,.42,.23,.78,.45,.9,1.03,.1,.46,.46,.89,1.03,.36,1.14,.04,2.07,.71,2.19,1.58,1.26-.46,1.42-.35,1.44,1.07,0,.03,0,.06,0,.09-.05,.54,.09,.69,.62,.41,.59-.32,.9-.08,.9,.58,0,.22-.25,.41-.07,.66,.42-.07,.82-.01,1.13,.3,.45,.45-.38,.72-.12,1.28,.53-.46,1.11-.64,1.68-.12,.12,.11,.27,0,.39-.09,.26-.19,.49-.15,.67,.1,.16,.23,.35,.47,.14,.79-.17,.26-.41,.59-.07,.84,.3,.23,.49-.17,.74-.27,.08-.03,.17-.03,.25-.05,.59,.51,1.24,.43,1.9,.21-.1-.05-.2-.06-.3-.09,.04-.02,.09-.02,.13-.05,.07-.04,.15,.04,.17,.14,.69,.29,.21,.74,.1,1.19,.74-.01,1.23,.16,1.02,1.05-.09,.37,.13,.7,.54,.38,.52-.4,.82,.04,1.13,.25,.43,.29-.09,.46-.19,.68-.09,.21-.04,.39,.05,.58,.03,.38,.27,.52,.59,.37,.68-.31,.89,.06,.97,.62,.05,.37,.18,.41,.51,.29,.81-.31,.96,.13,.88,.8-.14,.18-.53,.6-.16,.55,.65-.09,1.18,.29,1.78,.17,.65-.13,1.02,.12,1.01,.8,0,.6,.24,.8,.81,.58,.23-.09,.52-.14,.53,.2,.04,.97,.64,.82,1.26,.68,.37,.4,.5,1.24,1.37,.73,.07-.04,.24,.11,.37,.17,.36,.24-.2,.85,.27,.93,.58,.09,1.09,.59,1.75,.29,.29-.13,.5,.09,.61,.35,.21,.47,.62,.66,1.06,.84,.03,.78,.09,1.56,.5,2.25,.01,.02,.01,.05,.01,.08,0,.03,0,.06,0,.1h.02c-.19,.31,.04,.5,.25,.48,.55-.07,.81,.32,1.13,.62,.11,.49,.37,.93,.02,1.47-.21,.32,0,.58,.48,.43,.57-.18,.96,.17,.9,.76-.02,.17-.25,.35,.05,.56,.48-.44,.97-.24,1.32,.17,.35,.41-.27,.52-.37,.8-.04,.12-.04,.22,.08,.29,.06,.05,.13,.14,.19,.15,1.21,.05,1.33,.24,.83,1.25-.04,.48,.39,.54,.62,.47,1-.3,1.16,.29,1.22,1.04,.04,.48,.25,.55,.62,.27,.49-.06,.88,.17,.83,.63-.12,1.02,.46,.86,1.07,.75-.12-.03-.21-.07-.3-.11,.1-.01,.2,0,.3,.11,.26,1.38,1.38,1.19,2.34,1.3,.14,.02,.29,.07,.4,.15,.24,.16,.45,.19,.72,.05,.6-.29,.89,.06,.95,.59,.04,.36,.19,.42,.51,.54,1,.38,1.96-.15,2.96-.07,.58,.05,1.19,0,1.79,.02,.65,.03,1.43,.16,1.93,.03,1.22-.32,2.4,0,3.55,0,1.32,0,2.69,.03,4.03,.12,.7,.05,1.42-.43,2.12,.05,.51-.48,1.02-.96,1.53-1.43,.12-.79,.1-1.66,1.08-1.97,.02,0,.03-.05,.03-.08-.19-.76-.08-1.52-.06-2.28Zm-32.97-49.89c-.11-.02-.21-.02-.3-.02,.1-.05,.2-.03,.3,.02Zm-20.37,5.31c-.2,.11-.39,.29-.6,.3-.59,.04-.89,.16-.37,.74,.25,.28-.07,.41-.19,.57-.16,.21-.41,.4-.67,.16-.39-.37-.72-.43-1.1,.01-.08,.09-.34,.17-.38,.13-.55-.64-1.27,.18-1.84-.22-.69,.71-1.54-.18-2.27,.24-.23,.13-.52,.08-.76-.06-.28-.16-.52-.22-.79,.03-.1,.09-.32,.19-.38,.14-1.01-.8-2.26,.33-3.31-.43-.22-.16-.76,.2-1.15,.19-.52,0-1.07,.09-1.49-.47-.27-.37-.56,.07-.8,.22-.49,.3-.87,.15-.83-.38,.05-.72-.41-.92-.87-1.19-.4-.15-.63-.38-.45-.84,.05-.13,.09-.3,0-.42-.34-.51-.31-1,0-1.51,.08-.13-.01-.28-.06-.41-.39-.7,.21-1.34,.12-2.07-.05-.4,.1-.86-.09-1.3-.06-.13-.09-.31-.04-.42,.44-1.09-.1-2.23,.23-3.33,.15-.51,.03-1.05-.18-1.53-.2-.48-.05-.99-.1-1.4-.1-.83,.09-1.53,.17-2.3,.11-1.06,.24-2.19,.09-3.23-.12-.8,.32-1.56-.08-2.4-.2-.44-.21-1.06-.43-1.59-.12-.29-.28-.5-.56-.62-.42-.17-.37-.48-.16-.73,.38-.45,.22-.75-.22-1-1.02,.15-1.68-.62-2.47-1.02-.34-.17-.16-.52,.04-.75,.35-.39,.36-.64-.15-.93-.54-.31-.92-.75-.33-1.39,.26-.28,.04-.54-.15-.76-.24-.29-.23-.57,.03-.85,.28-.29,.54-.24,.83,0,.42,.35,.65,.32,.63-.32-.03-.87,.23-1.04,1.03-.71,.17,.07,.34,.14,.48,0,.51-.46,1.18-.44,1.73-.33,.73,.14,1.49-.3,2.17,.2,.13,.1,.27-.04,.38-.14,.37-.35,.74-.43,1.14-.04,.29,.28,.58,.21,.84-.05,.29-.29,.57-.17,.87-.02,.45,.22,.56,.47,.11,.81-.26,.19-.53,.41-.28,.79,.22,.34,.53,.23,.76,.06,.24-.17,.74,.29,.75-.33-.36-.3-.33-.63-.08-.98,.24-.34,.52-.28,.83-.14,.44,.19,.84-.1,1.26-.13,.74-.06,1.01,.18,.85,.93-.11,.53-.01,.65,.5,.44,.35-.14,.72-.22,1.04,.11,.17,.18,.36,.06,.55-.03,.36-.19,.66-.08,.92,.21,.24,.41,.02,.71-.22,1.02-.14,.19-.13,.38,.05,.54,.16,.15,.38,.27,.53,.06,.68-.88,.84-.06,1.13,.33,.1,.14,.15,.31,.23,.46,.44,.38,.99,.21,1.49,.25,.2,.02,.38-.04,.55,.15,1.17,1.27,2.06,1.28,3.23,.05,.33-.14,.66-.15,.99,.01,.22,.1,.42,.09,.66,.02,.85-.26,.98-.17,1.15,.68,.04,.21-.01,.49,.36,.4,.28-.25,.56-.33,.83,.02,.62-.21,1.31,.23,1.9-.2,.73-.11,1.46-.23,2.19,.05,.16,.06,.33,.07,.49-.04,.24-.18,.5-.33,.76-.06,.23,.25,.31,.55,.17,.88-.26,.57-.17,.81,.48,.51,.36-.16,.61,.01,.82,.28l-.02-.03c.24,.13,.17,.37,.12,.53-.17,.54-.08,.69,.49,.46,.4-.16,.62,.24,.84,.47,.24,.24,.03,.47-.15,.67-.17,.19-.38,.37-.24,.67h0c.49,.21,.58,.55,.33,1-.12,.1-.19,.21-.14,.37,.09,.11,.23,.22,.25,.35,.11,.53,.35,.53,.69,.2,.2-.2,.42-.35,.66-.07,.22,.26,.7,.44,.29,.9-.41,.33-.51,.66-.07,1.07,.25,.24,.2,.53-.05,.77-.23,.23-.47,.31-.77,.07-.17-.13-.32-.4-.59-.22-.26,.17-.1,.43-.06,.64,.26,1.48-.08,2.93-.14,4.4-.03,.79,.04,1.58-.01,2.37-.04,.63-.23,.99-.94,.93-.54-.05-.72,.16-.35,.64,.34,.29,.43,.57,.05,.94-.3,.3-.54,.4-.86,.04-.24-.26-.5-.2-.61,.11-.29,.8-.93,1.12-1.67,1.34h0c-.08,.17,.02,.28,.12,.38,.24,.22,.34,.47,.14,.77-.16,.25-.37,.48-.71,.38-.4-.12-.59,.06-.75,.39-.2,.41-.46,.62-.97,.38-.3-.14-1.59,.67-1.7,1-.18,.55-.69,.87-1.12,.73-.51-.17-.89,.07-1.33,.06-.41-.01-.67,.04-.59,.57,.08,.51-.4,.69-.75,.8-.32,.1-.42,.16-.51,.52-.2,.82-.85,.66-1.45,.48Z"/>
    <path class="cls-1" d="M180.02,70.89s-.03,.03-.04,.05c.02-.01,.03-.03,.04-.05Z"/>
  </g>
</svg>