<svg width="392" height="218" viewBox="0 0 392 218" fill="none" xmlns="http://www.w3.org/2000/svg">
<path fill-rule="evenodd" clip-rule="evenodd" d="M0.685999 0.740999C0.318999 1.107 0.0189991 23.607 0.0189991 50.741V100.074H8.007H15.996L16.257 61.324L16.519 22.574L31.878 45.824C40.325 58.611 47.589 69.074 48.019 69.074C48.449 69.074 55.713 58.611 64.16 45.824L79.519 22.574L79.781 61.324L80.042 100.074H88.04H96.038L95.778 50.324L95.519 0.573999L86.296 0.286999L77.073 0L62.796 21.51C54.944 33.341 48.294 43.02 48.019 43.02C47.744 43.02 41.105 33.357 33.267 21.547L19.014 0.0739994H10.183C5.326 0.0739994 1.052 0.373999 0.685999 0.740999ZM112.79 0.636999C112.439 0.986999 112.563 2.241 113.065 3.424C114.162 6.009 146.019 99.089 146.019 99.708C146.019 99.947 150.8 100.014 156.643 99.858L167.266 99.574L184.143 50.605C193.425 23.673 201.019 1.285 201.019 0.855C201.019 0.426 197.435 0.0739994 193.054 0.0739994C186.485 0.0739994 184.928 0.380999 184.17 1.824C183.665 2.786 177.503 20.674 170.478 41.574C163.452 62.474 157.376 79.951 156.974 80.412C156.573 80.872 150.195 63.097 142.801 40.912L129.358 0.573999L121.392 0.286999C117.011 0.128999 113.14 0.285999 112.79 0.636999ZM215.769 0.647999C215.357 1.065 215.019 23.607 215.019 50.741V100.074H222.996H230.974L231.246 81.824L231.519 63.574L239.519 63.356L247.519 63.137L261.508 81.606L275.497 100.074H285.38C293.138 100.074 295.055 99.805 294.293 98.824C293.76 98.137 287.144 89.711 279.591 80.101L265.859 62.627L271.662 60.693C279.616 58.042 287.226 50.484 289.436 43.04C291.495 36.107 291.446 27.644 289.309 20.939C288.051 16.993 286.133 14.109 282.059 10.034C273.533 1.509 270.697 0.836999 241.019 0.316999C227.544 0.0809994 216.181 0.229999 215.769 0.647999ZM312.019 50.074V100.074H320.001H327.983L328.251 76.461L328.519 52.849L349.519 76.433L370.519 100.018L380.965 100.046L391.411 100.074L388.385 96.824C386.72 95.037 377.777 85.024 368.512 74.574C359.247 64.124 350.337 54.142 348.712 52.391L345.757 49.209L367.388 25.219C379.285 12.025 389.019 0.969999 389.019 0.651999C389.019 0.333999 384.632 0.0769999 379.269 0.0799999L369.519 0.0859985L349.519 22.539C338.519 34.889 329.182 45.011 328.769 45.033C328.356 45.056 328.019 34.949 328.019 22.574V0.0739994H320.019H312.019V50.074ZM265.618 17.979C277.351 23.308 277.899 40.661 266.519 46.516C262.988 48.333 260.702 48.574 247.019 48.574H231.519L231.244 32.324L230.969 16.074L246.244 16.096C258.974 16.114 262.202 16.428 265.618 17.979ZM339.249 116.624C332.37 118.476 328.785 120.387 323.887 124.812C318.387 129.782 315.814 135.249 315.245 143.183C314.048 159.853 322.149 167.026 349.662 173.659C367.054 177.852 371.416 179.492 374.038 182.825C378.126 188.022 375.472 197.14 368.813 200.775C366.207 202.198 363.221 202.574 354.519 202.574C345.066 202.574 342.935 202.262 339.364 200.352C334.791 197.907 331.559 194.301 329.479 189.324L328.121 186.074H320.051H311.981L312.586 188.824C313.918 194.881 319.214 204.076 323.589 207.927C332.424 215.704 342.264 218.575 357.607 217.854C374.077 217.079 384.153 211.632 389.562 200.576C391.936 195.722 392.188 194.211 391.873 186.687C391.559 179.199 391.175 177.754 388.476 173.909C383.955 167.466 374.765 163.141 356.051 158.647C334.318 153.428 331.019 151.435 331.019 143.522C331.019 140.593 331.794 139.064 334.805 136.052C339.612 131.245 345.177 129.668 354.804 130.384C363.821 131.054 369.538 134.093 372.844 139.976L375.147 144.074H383.083C387.501 144.074 391.019 143.647 391.019 143.112C391.019 140.091 386.41 130.664 383.087 126.889C374.333 116.944 354.934 112.402 339.249 116.624ZM0.259998 166.824L0.518999 216.574L8.269 216.866L16.019 217.158V195.116V173.074H48.019H80.019V195.074V217.074H88.019H96.019V167.074V117.074H88.04H80.06L79.79 137.324L79.519 157.574H48.019H16.519L16.248 137.324L15.978 117.074H7.989H0L0.259998 166.824ZM145.167 122.408C131.628 158.593 111.019 215.069 111.019 215.983C111.019 216.807 113.331 217.071 118.757 216.866L126.495 216.574L131.374 203.324L136.253 190.074H157.014H177.775L182.647 203.574L187.519 217.074H195.269C199.649 217.074 203.019 216.649 203.019 216.097C203.019 215.369 171.756 129.782 167.487 118.824C166.902 117.322 165.411 117.074 156.984 117.074H147.163L145.167 122.408ZM215.027 148.324C215.031 165.512 215.493 182.401 216.054 185.857C218.239 199.322 225.632 209.661 236.82 214.896C242.074 217.354 243.534 217.563 255.519 217.568C267.524 217.574 268.955 217.37 274.215 214.904C280.816 211.81 287.953 205.084 291.025 199.063C295.275 190.733 295.983 183.651 296.002 149.324L296.019 117.074H288.109H280.2L279.859 150.824L279.518 184.574L276.889 190.181C272.815 198.87 265.848 203.074 255.519 203.074C245.952 203.074 238.69 199.118 234.76 191.766C232.579 187.686 232.511 186.634 232.221 152.324L231.924 117.074H223.471H215.019L215.027 148.324ZM164.467 153.324C168.252 163.912 171.548 173.137 171.791 173.824C172.132 174.788 168.781 175.074 157.126 175.074C148.817 175.074 142.019 174.817 142.019 174.503C142.019 173.051 156.439 134.074 156.976 134.074C157.311 134.074 160.682 142.736 164.467 153.324Z" fill="black"/>
</svg>
